<svg xmlns="http://www.w3.org/2000/svg" viewBox="0 0 409.83 376.87"><polygon points="0 150.22 0 376.87 409.83 226.65 409.83 0 0 150.22" fill="#2b337c"/><rect x="163.75" y="164.93" width="14.8" height="70.39" fill="#fff"/><path d="M29.68,235.36H63c11.14,0,22.16-7.2,22.24-20.26,0-10.06-9.11-18-15.84-19.07C73.87,194.38,80,188.68,80,181.48c0-8.71-6.88-16.52-17.21-16.52H22.64v3.6l7,4.86Zm21.22-30.9a14.68,14.68,0,0,1,7.7-2.33c8.23,0,11.94,6.06,11.95,12.51l0-.15c0,7.36-4.29,14.57-12.89,14.57H44.38l0-57.94h10.9c6.27,0,10.42,4.95,10.42,11.85,0,5.13-1.28,10.26-3.64,12-1,.06-1.75.1-2.52.16-3.11.22-7.26,1.26-8.67,2.31Z" fill="#fff"/><path d="M271.26,235.38H296c18.66,0,34.95-13.64,34.95-35.14,0-22.11-15.82-35.28-35.16-35.28H264v3.6l7.24,4.86Zm20.57-6.31h-5.77l0-57.95H292c12.35,0,23.79,12.9,23.75,29S304.32,229.07,291.83,229.07Z" fill="#fff"/><path d="M238,196.75c3.64-1.66,10.14-6.69,10.14-15.27S241.27,165,230.93,165H190.61v3.6l7,4.86v61.94h14.87V171.12h10.77l.54,0c6,.21,10,5.08,10,11.83,0,5.13-1.28,10.26-3.65,12-1,.06-1.74.1-2.51.16-3.11.22-7.27,1.26-8.68,2.3v7a15.68,15.68,0,0,1,5-1.56c4.57,0,5.41,2.06,7.93,8.67l6.79,16.4c5.39,12.76,11.83,23.17,28.18,23.17h4.33v-6h-1.15c-7.9,0-11.05-6.23-14.17-13.55,0,0-8.58-20.34-11.35-26a15.47,15.47,0,0,0-8.37-8.1S236.77,197.32,238,196.75Z" fill="#fff"/><path d="M139.84,235.36h16L125.6,164.94h-9L86.52,235.36H98l8.34-19.23h25.21Zm-22.91-45.18,2-5.7,2.34,5.85,7.29,18.46h-19.2Z" fill="#fff"/></svg>